<svg xmlns="http://www.w3.org/2000/svg" width="71.999" height="46" viewBox="0 0 71.999 46">
  <g id="_4star_icon" data-name="4star_icon" transform="translate(-59 -647.001)">
    <g id="_4star_icon-2" data-name="4star_icon" transform="translate(-6.973 -32.896)">
      <g id="Group_1" data-name="Group 1">
        <path id="Path_1" data-name="Path 1" d="M86.172,686.7l-5.634-.836-2.52-5.191a1.519,1.519,0,0,0-2.643,0l-2.517,5.191-5.622.836a1.488,1.488,0,0,0-1.19,1.024,1.534,1.534,0,0,0,.375,1.545l4.075,4.053-.961,5.728a1.53,1.53,0,0,0,.586,1.474,1.459,1.459,0,0,0,1.556.111l5.021-2.7,5.033,2.7a1.442,1.442,0,0,0,.686.173,1.465,1.465,0,0,0,.87-.287,1.518,1.518,0,0,0,.589-1.471l-.961-5.728,4.076-4.053a1.527,1.527,0,0,0,.372-1.545A1.48,1.48,0,0,0,86.172,686.7Z" fill="#858585"/>
        <path id="Path_2" data-name="Path 2" d="M111.44,686.7l-5.634-.836-2.517-5.191a1.522,1.522,0,0,0-2.647,0l-2.517,5.191L92.5,686.7a1.488,1.488,0,0,0-1.19,1.024,1.534,1.534,0,0,0,.375,1.545l4.075,4.053-.961,5.728a1.53,1.53,0,0,0,.586,1.474,1.459,1.459,0,0,0,1.556.111l5.021-2.7,5.033,2.7a1.442,1.442,0,0,0,.686.173,1.465,1.465,0,0,0,.87-.287,1.518,1.518,0,0,0,.589-1.471l-.961-5.728,4.076-4.053a1.527,1.527,0,0,0,.372-1.545A1.48,1.48,0,0,0,111.44,686.7Z" fill="#858585"/>
        <path id="Path_3" data-name="Path 3" d="M111.44,711.786l-5.634-.836-2.517-5.191a1.522,1.522,0,0,0-2.647,0l-2.517,5.191-5.622.836a1.494,1.494,0,0,0-1.19,1.024,1.535,1.535,0,0,0,.375,1.545l4.075,4.056-.961,5.725a1.53,1.53,0,0,0,.586,1.474,1.452,1.452,0,0,0,1.556.111l5.021-2.7,5.033,2.7a1.446,1.446,0,0,0,.686.176,1.469,1.469,0,0,0,.87-.29,1.518,1.518,0,0,0,.589-1.471l-.961-5.725,4.076-4.056a1.527,1.527,0,0,0,.372-1.545A1.485,1.485,0,0,0,111.44,711.786Z" fill="#858585"/>
        <path id="Path_4" data-name="Path 4" d="M137.9,687.719a1.48,1.48,0,0,0-1.19-1.024l-5.634-.836-2.517-5.191a1.522,1.522,0,0,0-2.647,0l-2.517,5.191-5.622.836a1.488,1.488,0,0,0-1.19,1.024,1.534,1.534,0,0,0,.375,1.545l4.076,4.053-.961,5.728a1.53,1.53,0,0,0,.586,1.474,1.459,1.459,0,0,0,1.556.111l5.021-2.7,5.033,2.7a1.442,1.442,0,0,0,.686.173,1.459,1.459,0,0,0,.87-.287,1.518,1.518,0,0,0,.589-1.471l-.961-5.728,4.076-4.053A1.527,1.527,0,0,0,137.9,687.719Z" fill="#858585"/>
      </g>
    </g>
    <path id="Color_Overlay" data-name="Color Overlay" d="M100.026,692.825l-5.033-2.7-5.021,2.7a1.452,1.452,0,0,1-1.556-.112,1.529,1.529,0,0,1-.586-1.474l.96-5.725-4.075-4.055a1.533,1.533,0,0,1-.374-1.545,1.492,1.492,0,0,1,1.19-1.024l5.622-.836,2.516-5.191a1.522,1.522,0,0,1,2.647,0l2.516,5.191,5.635.836a1.484,1.484,0,0,1,1.19,1.024,1.526,1.526,0,0,1-.372,1.545l-4.075,4.055.96,5.725a1.518,1.518,0,0,1-.589,1.471,1.473,1.473,0,0,1-.87.29A1.45,1.45,0,0,1,100.026,692.825Zm13.658-25.2a1.531,1.531,0,0,1-.586-1.474l.96-5.728-4.075-4.053a1.534,1.534,0,0,1-.374-1.545,1.488,1.488,0,0,1,1.19-1.023l5.622-.836,2.517-5.191a1.521,1.521,0,0,1,2.646,0l2.516,5.191,5.635.836a1.478,1.478,0,0,1,1.19,1.023,1.526,1.526,0,0,1-.371,1.545l-4.076,4.053.961,5.728a1.517,1.517,0,0,1-.59,1.471,1.456,1.456,0,0,1-1.556.114l-5.033-2.7-5.021,2.7a1.439,1.439,0,0,1-.688.174A1.472,1.472,0,0,1,113.684,667.623Zm-25.268,0a1.529,1.529,0,0,1-.586-1.474l.96-5.728-4.075-4.053a1.532,1.532,0,0,1-.374-1.545,1.487,1.487,0,0,1,1.19-1.023l5.622-.836,2.516-5.191a1.522,1.522,0,0,1,2.647,0l2.516,5.191,5.635.836a1.479,1.479,0,0,1,1.19,1.023,1.525,1.525,0,0,1-.372,1.545l-4.075,4.053.96,5.728a1.516,1.516,0,0,1-.589,1.471,1.464,1.464,0,0,1-.87.287,1.447,1.447,0,0,1-.686-.173l-5.033-2.7-5.021,2.7a1.439,1.439,0,0,1-.688.174A1.472,1.472,0,0,1,88.416,667.623Zm-25.269,0a1.531,1.531,0,0,1-.586-1.474l.961-5.728-4.076-4.053a1.536,1.536,0,0,1-.374-1.545,1.488,1.488,0,0,1,1.191-1.023l5.622-.836,2.516-5.191a1.519,1.519,0,0,1,2.643,0l2.52,5.191,5.634.836a1.48,1.48,0,0,1,1.191,1.023,1.529,1.529,0,0,1-.372,1.545l-4.075,4.053.96,5.728a1.517,1.517,0,0,1-.59,1.471,1.459,1.459,0,0,1-.869.287,1.442,1.442,0,0,1-.686-.173l-5.034-2.7-5.021,2.7a1.437,1.437,0,0,1-.688.174A1.474,1.474,0,0,1,63.147,667.623Z" fill="#008078"/>
  </g>
</svg>
