<svg xmlns="http://www.w3.org/2000/svg" width="71.999" height="46" viewBox="0 0 71.999 46">
  <g id="_5star_icon" data-name="5star_icon" transform="translate(-59 -762.001)">
    <g id="_5star_icon-2" data-name="5star_icon" transform="translate(-6.973 -33.987)">
      <g id="Group_3" data-name="Group 3">
        <path id="Path_9" data-name="Path 9" d="M82.416,816.9a1.469,1.469,0,0,0,.87-.29,1.518,1.518,0,0,0,.589-1.471l-.961-5.725,4.076-4.056a1.527,1.527,0,0,0,.372-1.545,1.485,1.485,0,0,0-1.19-1.024l-5.634-.836-2.52-5.191a1.519,1.519,0,0,0-2.643,0l-2.517,5.191-5.622.836a1.494,1.494,0,0,0-1.19,1.024,1.535,1.535,0,0,0,.375,1.545l4.075,4.056-.961,5.725a1.53,1.53,0,0,0,.586,1.474,1.452,1.452,0,0,0,1.556.111l5.021-2.7,5.033,2.7A1.446,1.446,0,0,0,82.416,816.9Z" fill="#858585"/>
        <path id="Path_10" data-name="Path 10" d="M107.685,816.9a1.469,1.469,0,0,0,.87-.29,1.518,1.518,0,0,0,.589-1.471l-.961-5.725,4.076-4.056a1.527,1.527,0,0,0,.372-1.545,1.485,1.485,0,0,0-1.19-1.024l-5.634-.836-2.517-5.191a1.522,1.522,0,0,0-2.647,0l-2.517,5.191-5.622.836a1.494,1.494,0,0,0-1.19,1.024,1.535,1.535,0,0,0,.375,1.545l4.075,4.056-.961,5.725a1.53,1.53,0,0,0,.586,1.474,1.452,1.452,0,0,0,1.556.111l5.021-2.7,5.033,2.7A1.446,1.446,0,0,0,107.685,816.9Z" fill="#858585"/>
        <path id="Path_11" data-name="Path 11" d="M99.356,827.877l-5.634-.833L91.2,821.85a1.522,1.522,0,0,0-2.647,0l-2.517,5.194-5.622.833a1.492,1.492,0,0,0-1.19,1.027,1.531,1.531,0,0,0,.375,1.542l4.075,4.056-.961,5.725A1.525,1.525,0,0,0,83.3,841.7a1.459,1.459,0,0,0,1.556.114l5.021-2.705,5.033,2.705a1.456,1.456,0,0,0,1.556-.114,1.526,1.526,0,0,0,.589-1.474L96.1,834.5l4.076-4.056a1.523,1.523,0,0,0,.372-1.542A1.484,1.484,0,0,0,99.356,827.877Z" fill="#858585"/>
        <path id="Path_12" data-name="Path 12" d="M126.365,827.877l-5.634-.833-2.517-5.194a1.522,1.522,0,0,0-2.647,0l-2.517,5.194-5.622.833a1.492,1.492,0,0,0-1.19,1.027,1.531,1.531,0,0,0,.375,1.542l4.075,4.056-.961,5.725a1.525,1.525,0,0,0,.586,1.474,1.459,1.459,0,0,0,1.556.114l5.021-2.705,5.033,2.705a1.462,1.462,0,0,0,1.559-.114,1.53,1.53,0,0,0,.586-1.474l-.961-5.725,4.075-4.056a1.523,1.523,0,0,0,.372-1.542A1.484,1.484,0,0,0,126.365,827.877Z" fill="#858585"/>
        <path id="Path_13" data-name="Path 13" d="M137.9,803.809a1.485,1.485,0,0,0-1.19-1.024l-5.634-.836-2.517-5.191a1.522,1.522,0,0,0-2.647,0l-2.517,5.191-5.622.836a1.494,1.494,0,0,0-1.19,1.024,1.535,1.535,0,0,0,.375,1.545l4.076,4.056-.961,5.725a1.53,1.53,0,0,0,.586,1.474,1.452,1.452,0,0,0,1.556.111l5.021-2.7,5.033,2.7a1.447,1.447,0,0,0,.686.176,1.462,1.462,0,0,0,.87-.29,1.518,1.518,0,0,0,.589-1.471l-.961-5.725,4.076-4.056A1.527,1.527,0,0,0,137.9,803.809Z" fill="#858585"/>
      </g>
    </g>
    <path id="Color_Overlay" data-name="Color Overlay" d="M114.951,807.828l-5.034-2.705-5.021,2.705a1.458,1.458,0,0,1-1.556-.114,1.525,1.525,0,0,1-.586-1.474l.961-5.725-4.076-4.055a1.533,1.533,0,0,1-.374-1.543,1.492,1.492,0,0,1,1.191-1.027l5.622-.833,2.516-5.195a1.522,1.522,0,0,1,2.647,0l2.516,5.195,5.634.833a1.485,1.485,0,0,1,1.191,1.027,1.526,1.526,0,0,1-.372,1.543l-4.075,4.055.96,5.725a1.531,1.531,0,0,1-.586,1.474,1.461,1.461,0,0,1-1.559.114Zm-27.009,0-5.034-2.705-5.021,2.705a1.456,1.456,0,0,1-1.555-.114,1.524,1.524,0,0,1-.587-1.474l.961-5.725-4.075-4.055a1.532,1.532,0,0,1-.375-1.543,1.493,1.493,0,0,1,1.191-1.027l5.622-.833,2.516-5.195a1.522,1.522,0,0,1,2.647,0l2.516,5.195,5.634.833a1.483,1.483,0,0,1,1.191,1.027,1.524,1.524,0,0,1-.372,1.543l-4.075,4.055.96,5.725a1.527,1.527,0,0,1-.589,1.474,1.456,1.456,0,0,1-1.556.114Zm37.353-25.095-5.033-2.7-5.021,2.7a1.454,1.454,0,0,1-1.556-.111,1.531,1.531,0,0,1-.586-1.474l.96-5.725-4.075-4.056a1.534,1.534,0,0,1-.374-1.545,1.5,1.5,0,0,1,1.19-1.024l5.622-.835,2.517-5.191a1.521,1.521,0,0,1,2.646,0l2.516,5.191,5.635.835a1.485,1.485,0,0,1,1.19,1.024,1.526,1.526,0,0,1-.371,1.545l-4.076,4.056.961,5.725a1.517,1.517,0,0,1-.59,1.471,1.441,1.441,0,0,1-1.556.114Zm-25.268,0-5.033-2.7-5.021,2.7a1.454,1.454,0,0,1-1.556-.111,1.529,1.529,0,0,1-.586-1.474l.96-5.725-4.075-4.056a1.532,1.532,0,0,1-.374-1.545,1.493,1.493,0,0,1,1.19-1.024l5.622-.835,2.516-5.191a1.522,1.522,0,0,1,2.647,0l2.516,5.191,5.635.835a1.486,1.486,0,0,1,1.19,1.024,1.525,1.525,0,0,1-.372,1.545l-4.075,4.056.96,5.725a1.516,1.516,0,0,1-.589,1.471,1.467,1.467,0,0,1-.87.29A1.45,1.45,0,0,1,100.026,782.734Zm-25.268,0-5.034-2.7-5.021,2.7a1.454,1.454,0,0,1-1.556-.111,1.531,1.531,0,0,1-.586-1.474l.961-5.725-4.076-4.056a1.536,1.536,0,0,1-.374-1.545,1.5,1.5,0,0,1,1.191-1.024l5.622-.835,2.516-5.191a1.519,1.519,0,0,1,2.643,0l2.52,5.191,5.634.835a1.487,1.487,0,0,1,1.191,1.024,1.529,1.529,0,0,1-.372,1.545l-4.075,4.056.96,5.725a1.517,1.517,0,0,1-.59,1.471,1.462,1.462,0,0,1-.869.29A1.445,1.445,0,0,1,74.758,782.734Z" fill="#008078"/>
  </g>
</svg>
