<svg xmlns="http://www.w3.org/2000/svg" width="41.874" height="50.922" viewBox="0 0 41.874 50.922"><defs><style>.a{fill:#868686;}</style></defs><g transform="translate(-64.126 -1107.539)"><g transform="translate(49.015 1065.181)"><path d="M56.537,62.482a2.832,2.832,0,0,0-4.028-.744c-.679.425-1.36.845-2.075,1.289-1.064-1.336-2.108-2.617-3.109-3.93A1.694,1.694,0,0,1,47,58.133a4.211,4.211,0,0,0-6.076-3.951.693.693,0,0,0-.393.947.652.652,0,0,0,.953.343c.1-.041.2-.084.295-.121a2.792,2.792,0,0,1,3.766,3.09,1.355,1.355,0,0,0,.193.935c1.266,1.65,2.577,3.265,3.868,4.9a.8.8,0,0,0,1.216.19c.765-.5,1.545-.971,2.321-1.452.945-.587,1.739-.489,2.214.271.465.744.188,1.493-.776,2.1L50.857,67.7c-1.063.664-1.6.571-2.394-.419q-1.49-1.866-2.971-3.74c-.265-.337-.545-.623-1.014-.457-.492.175-.446.614-.449,1.018a11.349,11.349,0,0,0,1.933,5.974c1.561,2.569,3.387,4.977,5.046,7.489a3.248,3.248,0,0,1,.507,1.653c.047,3.1.022,6.2.019,9.3,0,.467.013.936-.028,1.4a1.609,1.609,0,0,1-1.117,1.418,1.477,1.477,0,0,1-1.794-.428,2.762,2.762,0,0,1-.522-1.5c-.05-2.738-.058-5.477-.009-8.215a4.46,4.46,0,0,0-.89-3.13c-.812-1-1.453-2.132-2.221-3.17a.944.944,0,0,0-.8-.288c-.191.041-.4.406-.439.651a11.535,11.535,0,0,0-.012,1.4,15.954,15.954,0,0,1-.145,3.6c-.806,3.075-1.813,6.1-2.749,9.137a1.742,1.742,0,1,1-3.327-.983c.334-1.139.7-2.269,1.038-3.407.9-3.035,2.194-6,1.675-9.291a7.955,7.955,0,0,1-.035-.888c-.09-2.079.037-4.143-.891-6.158a11.856,11.856,0,0,1-.763-6.131c.059-.621-.315-1.118-.772-.936a3.186,3.186,0,0,0-1.879,1.312c-1.074,2-2.172,3.987-3.266,5.976a1.4,1.4,0,0,1-1.71.8A1.253,1.253,0,0,1,30,67.838c.892-1.64,1.867-3.24,2.665-4.924a10.841,10.841,0,0,1,3.67-4.294,1.12,1.12,0,0,0,.154-.112c.3-.3.388-.688.08-.953a.964.964,0,0,0-.881-.156,10.561,10.561,0,0,0-3.33,3.178c-1.132,2.065-2.255,4.134-3.4,6.192-.108.193-.335.433-.523.449a2.473,2.473,0,0,0-2.1,1.534q-.995,1.956-2.063,3.875a1.237,1.237,0,0,1-.688.526A3.55,3.55,0,0,0,21.3,74.837c-.45.792-.891,1.589-1.348,2.377-1.424,2.459-2.86,4.91-4.28,7.372a3.367,3.367,0,0,0,1.443,4.948,7.847,7.847,0,0,1,1.066.566,2.013,2.013,0,0,1,.7.806,3.524,3.524,0,0,0,4.245,2.248,3.438,3.438,0,0,0,2.472-4.14,1.247,1.247,0,0,1,.194-1.054c1.585-2.512,3.146-5.04,4.727-7.556a3.6,3.6,0,0,0,.422-2.989.976.976,0,0,1,.054-.643c.764-1.491,1.55-2.97,2.338-4.449a2.565,2.565,0,0,0,.307-1.9,1.2,1.2,0,0,1,.156-.766c.963-1.794,1.949-3.577,2.93-5.361A4.9,4.9,0,0,1,37,63.9c.026.192.045.27.046.349a16.388,16.388,0,0,0,1.462,6.474,2.343,2.343,0,0,1,.173.859c.07,2.227.141,4.454.166,6.682a5.564,5.564,0,0,1-.248,1.617c-.8,2.7-1.65,5.395-2.445,8.1A3.8,3.8,0,0,0,36,89.541a3.09,3.09,0,0,0,2.9,2.666,3.154,3.154,0,0,0,3.222-2.281c.72-2.308,1.411-4.625,2.119-6.936.5-1.638,1.157-3.247.889-5.021,0-.028.039-.064.115-.181.3.439.553.869.864,1.249a2.56,2.56,0,0,1,.549,1.76c-.029,2.929-.016,5.859-.012,8.789a3.154,3.154,0,1,0,6.3.011c.01-3.524.033-7.049-.019-10.572a3.823,3.823,0,0,0-.557-1.91c-1.289-2.02-2.644-4-4.035-5.953a16.238,16.238,0,0,1-2.371-4.739l1.5,1.89a2.82,2.82,0,0,0,3.955.705q2.059-1.271,4.1-2.569A2.809,2.809,0,0,0,56.537,62.482ZM22.156,91.874A2.091,2.091,0,1,1,24.294,89.8,2.12,2.12,0,0,1,22.156,91.874Zm7.2-12.314c-1.311,2.13-2.644,4.246-3.97,6.367-.263.421-.532.838-.8,1.256C22.188,85.6,20.406,86.1,18.75,88.8a15.735,15.735,0,0,1-1.433-.785,1.92,1.92,0,0,1-.459-2.66q2.251-3.913,4.513-7.82.572-.99,1.147-1.978a1.557,1.557,0,0,1,2.375-.652c1.333.781,2.671,1.553,4.007,2.33A1.509,1.509,0,0,1,29.36,79.56Zm.364-3.449-4.346-2.562A57.334,57.334,0,0,1,28.256,68.5c.814,2.123,1.271,2.709,4.111,2.589Z"/><path d="M44.981,53.464a5.552,5.552,0,1,0-5.575-5.593A5.581,5.581,0,0,0,44.981,53.464Zm-.045-9.678a4.123,4.123,0,1,1-4.106,4.146A4.089,4.089,0,0,1,44.936,43.786Z"/><path d="M38.656,56.883c.266-.027.505-.308.941-.6-.412-.318-.659-.655-.89-.645a.925.925,0,0,0-.664.566A.544.544,0,0,0,38.656,56.883Z"/></g><path class="a" d="M67.887,1156.086a2.007,2.007,0,0,0-.7-.806,7.754,7.754,0,0,0-1.066-.566,3.368,3.368,0,0,1-1.444-4.948c1.419-2.462,2.856-4.913,4.28-7.372.456-.788.9-1.585,1.348-2.377a3.546,3.546,0,0,1,2.294-1.683,1.243,1.243,0,0,0,.688-.526q1.072-1.916,2.063-3.875a2.474,2.474,0,0,1,2.1-1.534c.188-.016.416-.256.523-.449,1.145-2.057,2.268-4.127,3.4-6.192a10.564,10.564,0,0,1,3.33-3.178.966.966,0,0,1,.881.156c.308.266.217.656-.08.953a1.07,1.07,0,0,1-.155.112,10.843,10.843,0,0,0-3.669,4.294c-.8,1.684-1.773,3.284-2.665,4.924a1.253,1.253,0,0,0,.877,1.848,1.4,1.4,0,0,0,1.71-.8c1.093-1.989,2.191-3.976,3.266-5.976a3.182,3.182,0,0,1,1.879-1.312c.457-.182.831.315.772.936a11.856,11.856,0,0,0,.763,6.131c.928,2.015.8,4.078.891,6.158a8.076,8.076,0,0,0,.034.887c.519,3.292-.777,6.256-1.675,9.291-.337,1.139-.7,2.268-1.038,3.406a1.742,1.742,0,1,0,3.326.984c.937-3.04,1.943-6.062,2.75-9.138a15.908,15.908,0,0,0,.146-3.6,11.464,11.464,0,0,1,.013-1.4c.036-.246.248-.609.438-.651a.944.944,0,0,1,.8.288c.767,1.037,1.409,2.172,2.22,3.17a4.459,4.459,0,0,1,.889,3.129c-.049,2.738-.04,5.477.009,8.215a2.765,2.765,0,0,0,.522,1.5,1.476,1.476,0,0,0,1.795.427,1.608,1.608,0,0,0,1.117-1.418c.041-.464.028-.932.029-1.4,0-3.1.027-6.2-.02-9.3a3.245,3.245,0,0,0-.507-1.653c-1.66-2.512-3.485-4.919-5.046-7.489a11.346,11.346,0,0,1-1.933-5.974c0-.4-.043-.842.449-1.018.469-.167.749.12,1.014.457q1.476,1.877,2.971,3.74c.79.99,1.331,1.082,2.394.419l3.727-2.327c.964-.6,1.241-1.351.777-2.1s-1.269-.858-2.214-.271c-.776.482-1.556.956-2.321,1.453a.8.8,0,0,1-1.216-.19c-1.291-1.632-2.6-3.246-3.868-4.9a1.351,1.351,0,0,1-.193-.934,2.792,2.792,0,0,0-3.766-3.091c-.1.037-.2.081-.294.121a.653.653,0,0,1-.954-.342.693.693,0,0,1,.393-.947,4.211,4.211,0,0,1,6.076,3.951,1.692,1.692,0,0,0,.32.965c1,1.313,2.045,2.594,3.109,3.93.715-.445,1.4-.865,2.075-1.29a2.8,2.8,0,1,1,3.02,4.712q-2.043,1.3-4.1,2.569a2.82,2.82,0,0,1-3.955-.706q-.752-.944-1.5-1.89a16.251,16.251,0,0,0,2.372,4.739c1.39,1.952,2.745,3.933,4.035,5.953a3.832,3.832,0,0,1,.558,1.91c.051,3.523.029,7.048.019,10.572a3.154,3.154,0,1,1-6.3-.012c0-2.929-.016-5.859.013-8.788a2.557,2.557,0,0,0-.55-1.76c-.311-.382-.563-.81-.864-1.25-.076.117-.12.153-.115.182.268,1.774-.387,3.383-.889,5.021-.708,2.311-1.4,4.628-2.119,6.935a3.152,3.152,0,0,1-3.222,2.281,3.089,3.089,0,0,1-2.9-2.666,3.812,3.812,0,0,1,.152-1.559c.8-2.706,1.644-5.4,2.445-8.1a5.561,5.561,0,0,0,.248-1.617c-.026-2.227-.1-4.455-.167-6.682a2.343,2.343,0,0,0-.173-.859,16.381,16.381,0,0,1-1.463-6.474c0-.079-.02-.157-.046-.349a4.873,4.873,0,0,0-.286.4c-.982,1.784-1.967,3.567-2.93,5.361a1.2,1.2,0,0,0-.156.765,2.567,2.567,0,0,1-.307,1.9c-.788,1.478-1.573,2.957-2.337,4.448a.975.975,0,0,0-.055.644,3.594,3.594,0,0,1-.421,2.989c-1.58,2.516-3.141,5.043-4.727,7.556a1.247,1.247,0,0,0-.194,1.054,3.438,3.438,0,0,1-2.471,4.14,3.518,3.518,0,0,1-.931.127A3.559,3.559,0,0,1,67.887,1156.086Zm1.236-1.131a2.093,2.093,0,1,0,2.137-2.081h-.031A2.129,2.129,0,0,0,69.123,1154.955Zm2.41-14.22q-.574.99-1.147,1.977-2.257,3.91-4.513,7.82a1.92,1.92,0,0,0,.459,2.66,15.9,15.9,0,0,0,1.433.786c1.656-2.7,3.438-3.2,5.843-1.615.266-.419.535-.835.8-1.256,1.325-2.12,2.658-4.237,3.969-6.367a1.509,1.509,0,0,0-.46-2.327c-1.336-.777-2.674-1.549-4.007-2.33a1.976,1.976,0,0,0-.988-.307A1.623,1.623,0,0,0,71.533,1140.735Zm2.86-2.005,4.346,2.562,2.642-5.021c-2.84.12-3.3-.466-4.111-2.589A57.428,57.428,0,0,0,74.393,1138.729Zm12.666-17.344a.923.923,0,0,1,.663-.565c.231-.011.478.327.89.644-.436.29-.676.572-.941.6a.568.568,0,0,1-.067,0A.54.54,0,0,1,87.059,1121.386ZM94,1118.644a5.518,5.518,0,1,1,.029,0Zm-4.151-5.531A4.125,4.125,0,1,0,94,1108.967h-.052A4.1,4.1,0,0,0,89.845,1113.113Z"/></g></svg>