<svg xmlns="http://www.w3.org/2000/svg" width="54.999" height="55" viewBox="0 0 54.999 55"><defs><style>.a{fill:#858585;}</style></defs><g transform="translate(-142.37 -868.907)"><path class="a" d="M167.545,868.907h4.721c1.075.176,2.164.25,3.224.5q16.083,3.851,20.957,19.66a28.342,28.342,0,0,1,.922,5.05v4.507c-.142.988-.24,1.987-.435,2.966a27.527,27.527,0,1,1-34.178-31.817A38.252,38.252,0,0,1,167.545,868.907Zm-23.411,27.418A25.773,25.773,0,1,0,169.985,870.6,25.816,25.816,0,0,0,144.133,896.325Z"/><path class="a" d="M167.076,900.4c0-2.218.017-4.435-.008-6.653a1.633,1.633,0,0,1,1.1-1.666,4.376,4.376,0,0,1,3.542.032,1.727,1.727,0,0,1,1.109,1.732q-.013,6.519,0,13.037a1.794,1.794,0,0,1-1.045,1.73,3.892,3.892,0,0,1-3.754-.008,1.656,1.656,0,0,1-.952-1.605C167.093,904.8,167.076,902.6,167.076,900.4Z"/><path class="a" d="M169.851,883.246a3.22,3.22,0,0,1,2.2.816,2.377,2.377,0,0,1,.151,3.486,3.192,3.192,0,0,1-4.774-.174,2.326,2.326,0,0,1,.161-3.165A3.134,3.134,0,0,1,169.851,883.246Z"/></g></svg>