<svg xmlns="http://www.w3.org/2000/svg" width="56" height="37" viewBox="0 0 56 37"><g transform="translate(-65.31 -819.522)"><path class="a" fill="#666" d="M108.93,829.348c-2.647-.043-4.419-1.391-4.514-3.434a1.206,1.206,0,0,0-1.2-1.158H77.461a1.206,1.206,0,0,0-1.2,1.158c-.095,2.044-1.89,3.39-4.571,3.434a1.208,1.208,0,0,0-1.181,1.216V839.4a1.208,1.208,0,0,0,1.181,1.218c2.725.043,4.476,1.359,4.571,3.432a1.208,1.208,0,0,0,1.2,1.16h25.7a1.208,1.208,0,0,0,1.2-1.16c.095-2.041,1.888-3.39,4.571-3.432a1.208,1.208,0,0,0,1.181-1.218v-8.836A1.208,1.208,0,0,0,108.93,829.348Zm-1.218,8.925a7.219,7.219,0,0,0-3.735,1.574,5.651,5.651,0,0,0-1.843,2.929H78.5c-.591-2.419-2.679-4.106-5.585-4.5v-6.581a7.239,7.239,0,0,0,3.735-1.576,5.656,5.656,0,0,0,1.843-2.929h23.7a6.154,6.154,0,0,0,5.52,4.505Z"/><path fill="#666" class="a" d="M90.312,828.591a6.392,6.392,0,1,0,6.3,6.391A6.351,6.351,0,0,0,90.312,828.591Zm0,10.35a3.96,3.96,0,1,1,3.9-3.959,3.933,3.933,0,0,1-3.9,3.959Z"/><path fill="#666" class="a" d="M116.937,825.6h-1.625v-1.649a4.409,4.409,0,0,0-4.373-4.433H69.683a4.409,4.409,0,0,0-4.373,4.433v22.053a4.409,4.409,0,0,0,4.373,4.433H71.31v1.649a4.408,4.408,0,0,0,4.373,4.433h41.255a4.408,4.408,0,0,0,4.373-4.433V830.037A4.408,4.408,0,0,0,116.937,825.6Zm-49.226,20.4V823.955a1.989,1.989,0,0,1,1.972-2h41.257a1.989,1.989,0,0,1,1.972,2v22.053a1.989,1.989,0,0,1-1.972,2H69.683A1.989,1.989,0,0,1,67.711,846.008Zm51.2,6.082a1.992,1.992,0,0,1-1.974,2H75.682a1.992,1.992,0,0,1-1.974-2v-1.649h37.231a4.409,4.409,0,0,0,4.373-4.433V828.036h1.625a1.988,1.988,0,0,1,1.974,2Z"/></g></svg>