<svg xmlns="http://www.w3.org/2000/svg" width="53.498" height="71.23" viewBox="0 0 53.498 71.23"><defs><style>.a{fill:#666;}</style></defs><g transform="translate(-1029.001 -2451.844)"><path class="a" d="M1049.233,2451.844a2.568,2.568,0,0,1,1.516,1.441c.154.427.52.317.825.317q7.336.006,14.67,0c1.876,0,3.753-.008,5.631,0a10.679,10.679,0,0,1-.01,21.358c-1.328.011-1.271.021-1.489,1.322a6.309,6.309,0,0,0,1.23,5.1c1.331,1.78,2.468,3.7,3.8,5.484a3.021,3.021,0,0,1-1.588,4.914c-.845.227-1.651.605-2.484.89a.868.868,0,0,0-.658.926,16.27,16.27,0,0,1-.448,3.717,8.9,8.9,0,0,1-7.556,6.568l-.422.057a8.034,8.034,0,0,0,3.536,1.527,39.251,39.251,0,0,0,5.343.147.585.585,0,0,0,.579-.4,3.844,3.844,0,0,1,3.891-2.255c.764.035,1.529,0,2.293.008a3.791,3.791,0,0,1,3.894,3.713,3.856,3.856,0,0,1-3.715,3.847,27.13,27.13,0,0,1-2.989,0,3.62,3.62,0,0,1-3.206-2,1.1,1.1,0,0,0-1.153-.653,28.675,28.675,0,0,1-5.473-.227,10.194,10.194,0,0,1-5.2-2.623c-.437-.421-.7-.376-1.069.038a3.936,3.936,0,0,0-.883,1.71c-.227.946-.414,1.9-.656,2.844-.095.37-.021.541.351.661a6.213,6.213,0,0,1,3.778,3.462c1.167,2.446,2.356,4.882,3.523,7.328.6,1.258.145,1.992-1.235,1.992q-11.784.006-23.567,0a1.462,1.462,0,0,1-1.26-.442,1.1,1.1,0,0,1,.524-1.75,2.956,2.956,0,0,1,1.033-.086q10.463,0,20.926,0c.957,0,.955,0,.553-.837-.856-1.773-1.719-3.545-2.564-5.322a3.9,3.9,0,0,0-3.805-2.406c-6.325.008-12.652,0-18.978.006a3.777,3.777,0,0,0-3.986,3.965c-.008,1.252.034,2.5-.017,3.754-.027.69.229.909.881.848a7.931,7.931,0,0,1,1.319.006,1.111,1.111,0,0,1,1.155,1.136,1.1,1.1,0,0,1-1.172,1.115c-1.064.029-2.133.031-3.2,0a1.132,1.132,0,0,1-1.214-1.176,42,42,0,0,1,.118-6.87,5.692,5.692,0,0,1,4.238-4.76,1.4,1.4,0,0,0,1.085-1.129,64.406,64.406,0,0,0,2.08-9.487c.082-.688.13-1.382.193-2.072.029-.326-.025-.574-.408-.688-2.941-.871-4.424-3.115-5.423-5.8a34.357,34.357,0,0,1-1.635-7.447c-.326-2.434-.864-4.829-1.205-7.259a34.5,34.5,0,0,1,.042-12.226,12.337,12.337,0,0,1,10.673-10.093c.7-.114,1.315-.183,1.536-1.056.156-.614.8-.866,1.336-1.14Zm13.487,20.865v-.038c3.29,0,6.584.1,9.868-.025,4.663-.185,8.353-5.091,7.555-9.685a8.711,8.711,0,0,0-8.534-7.114c-6.395.084-12.789.021-19.184.021-1.388,0-1.388,0-1.519,1.335-.076.787-.492,1.222-1.157,1.216s-1.081-.476-1.1-1.258-.025-1.575,0-2.363c.017-.494-.134-.715-.667-.7-1.2.027-2.411.021-3.614,0-.465-.008-.667.136-.665.633q.025,4.553,0,9.106c0,.493.194.648.661.64,1.113-.019,2.223,0,3.336-.007.938,0,.938,0,.94-.976,0-.324-.006-.648,0-.972.021-.831.425-1.333,1.085-1.361s1.161.53,1.18,1.358c.023.949.01,1.9,0,2.848a1.221,1.221,0,0,1-.995,1.323c-.4.09-.509.3-.5.679q.022,2.016,0,4.032c0,.4.145.574.557.614a4.71,4.71,0,0,1,1.891.387,2.9,2.9,0,0,0,1.474.307C1056.464,2472.7,1059.592,2472.708,1062.72,2472.708Zm-1.588,2.261c-2.154,0-4.31.013-6.464-.008-.516-.006-.7.084-.7.677.038,3.683.034,7.368.017,11.054a3.509,3.509,0,0,1-2.04,3.374c-.591.284-.476.5-.166.894,2.44,3.151,4.912,6.281,7.274,9.487a2.714,2.714,0,0,0,2.705,1.308,6.922,6.922,0,0,0,6.39-5.355,15.569,15.569,0,0,0,.261-2.76,2.947,2.947,0,0,1,2.27-3.109q1.24-.451,2.478-.911c.873-.326.966-.606.438-1.384-1.25-1.84-2.419-3.742-3.786-5.492a8.5,8.5,0,0,1-1.6-7.009c.1-.586-.08-.782-.681-.776C1065.4,2474.986,1063.265,2474.969,1061.132,2474.969Zm-19.7-13.826c0-1.437-.013-2.874.006-4.308.008-.528-.2-.717-.711-.625-4.464.821-7.453,2.97-8.757,7.632a26.089,26.089,0,0,0-.433,10.41c.545,4.313,1.292,8.6,2.038,12.882a13.005,13.005,0,0,0,2.362,6.018,4.377,4.377,0,0,0,2.187,1.523,2.871,2.871,0,0,0,3.932-2.164c.069-.431,0-.881.046-1.317.048-.507-.2-.684-.654-.778a3.659,3.659,0,0,1-3.09-3.795q-.019-5.349,0-10.7a3.5,3.5,0,0,1,2.863-3.666,9.635,9.635,0,0,1,1.094-.177c.393-.051.627-.2.62-.658-.021-1.365-.011-2.732,0-4.1a.533.533,0,0,0-.419-.606c-.875-.29-1.071-.6-1.077-1.54C1041.431,2463.83,1041.437,2462.486,1041.435,2461.143Zm5.124,48.8c2.594,0,5.187-.01,7.779.009.534,0,.795-.167.9-.711.177-.955.423-1.9.639-2.842a5.536,5.536,0,0,1,1.735-3.1c.461-.4.377-.658.051-1.077-2.417-3.1-4.81-6.229-7.219-9.342a8.206,8.206,0,0,0-1.853-2.213c-.816-.482-1.944-.133-2.932-.147-1.386-.023-1.273-.1-1.287,1.266a5.039,5.039,0,0,1-3.37,5,.9.9,0,0,0-.6.972,24.525,24.525,0,0,1-.242,2.692,61.579,61.579,0,0,1-1.948,8.729c-.162.576-.078.775.568.768C1041.374,2509.927,1043.965,2509.944,1046.559,2509.944Zm-5.921-28.723c0,1.807.009,3.614,0,5.419a1.49,1.49,0,0,0,.671,1.363c.189.126.4.288.637.16s.152-.37.152-.568c.006-2.085,0-4.168,0-6.252a2.453,2.453,0,0,1,2.613-2.678c.9-.021,1.807-.01,2.709,0,1.927.01,2.831.929,2.834,2.874,0,2.038,0,4.074,0,6.113,0,.589.217.7.715.406a1.486,1.486,0,0,0,.747-1.393c-.008-3.589,0-7.177-.006-10.765a1.443,1.443,0,0,0-1.634-1.622q-3.891-.017-7.781,0a1.461,1.461,0,0,0-1.657,1.67C1040.629,2477.7,1040.638,2479.463,1040.638,2481.221Zm7.427,3.427c0-1.02-.013-2.041,0-3.058.008-.478-.183-.667-.658-.656-.81.018-1.622.018-2.432,0-.448-.011-.623.183-.621.62q.01,3.023,0,6.046c0,.482.2.656.669.644.81-.021,1.622-.019,2.432,0,.446.011.623-.158.614-.61C1048.05,2486.64,1048.065,2485.643,1048.065,2484.648Zm28.462,23.61v0c.507,0,1.016.023,1.523,0a1.5,1.5,0,0,0,1.447-1.335,1.439,1.439,0,0,0-1.159-1.64,9.675,9.675,0,0,0-3.507-.011,1.5,1.5,0,0,0-1.2,1.628,1.567,1.567,0,0,0,1.512,1.364C1075.6,2508.274,1076.067,2508.258,1076.527,2508.258Zm-29.3-38.887v-1.386c0-1.251,0-1.224-1.228-1.245-.6-.011-.835.174-.812.791.038,1.039.01,2.081.01,3.121,0,1.424.052,1.462,1.491,1.351.376-.029.545-.17.539-.551C1047.219,2470.759,1047.226,2470.065,1047.228,2469.37Z" transform="translate(0 0)"/><path class="a" d="M1047.165,2476.281a3.849,3.849,0,0,1-3.871-3.6,1.16,1.16,0,0,1,.926-1.34,1.048,1.048,0,0,1,1.268,1.052,1.727,1.727,0,0,0,2.934,1.144,1.035,1.035,0,0,1,1.542.138,1.159,1.159,0,0,1-.158,1.572A3.682,3.682,0,0,1,1047.165,2476.281Z" transform="translate(15.772 21.495)"/></g></svg>