<svg xmlns="http://www.w3.org/2000/svg" width="60" height="57" viewBox="0 0 60 57"><defs><style>.a{fill:#666;}</style></defs><g transform="translate(-65.662 -687.425)"><path class="a" d="M125.662,722.209a2.333,2.333,0,0,1-2.137.977c-1.049.072-2.1.084-3.158.1-.394.006-.55.116-.511.557a1.207,1.207,0,0,1-1.334,1.467c-3.669-.019-7.335-.065-11-.1-.325,0-.511-.1-.521-.464-.017-.532-.063-1.064-.113-1.6-.031-.342.067-.509.444-.5,2.808.04,5.62-.046,8.428.095,1.33.068,1.357.1,1.313-1.214-.094-2.841-.221-5.681-.331-8.52-.01-.257-.015-.515-.008-.772a1.215,1.215,0,0,1,1.257-1.328,1.334,1.334,0,0,1,1.382,1.311c.083,1.6.154,3.193.223,4.791.046,1.066.094,2.129.117,3.2.008.348.1.494.471.477.78-.038,1.561-.049,2.341-.036.415.006.552-.167.532-.568-.161-3.075-.065-6.161-.311-9.233-.077-.964-.119-1.931-.156-2.9a1.879,1.879,0,0,0-1.868-1.94c-.721-.032-1.442-.008-2.166-.008-4,0-8-.011-12,0-2.087.008-4.167.19-6.245.365a2.077,2.077,0,0,0-1.776,1.961c-.019,1.56-.013,3.119-.1,4.679-.023.426-.142.612-.579.587-.507-.027-1.015-.023-1.522-.011-.39.011-.571-.137-.561-.553.052-1.817.023-3.638.146-5.449a4.814,4.814,0,0,1,4.1-3.9,128.617,128.617,0,0,1,14.145-.422c2.3.044,4.6-.019,6.9.072a4.514,4.514,0,0,1,4.182,4.381c.121,2.463.334,4.924.354,7.391a2.056,2.056,0,0,0,.069.348Z"/><path class="a" d="M88.831,744.3q-6.35,0-12.7,0c-1.028,0-1.524-.511-1.549-1.572-.013-.475-.027-.95,0-1.422.025-.452-.165-.582-.588-.57-1.989.059-3.975.143-5.968.122-1.632-.019-2.164-.557-2.232-2.189-.158-3.793-.142-7.583-.1-11.375.021-2.016.071-4.029.119-6.042a4.68,4.68,0,0,1,1.082-2.822,6.3,6.3,0,0,1,4.642-2.528c3.423-.27,6.848-.416,10.281-.5,5.7-.148,11.392.087,17.089.042a5.634,5.634,0,0,1,5.943,5.2c.169,1.355.294,2.71.331,4.069.142,4.974.254,9.951.367,14.925.027,1.165-.292,1.475-1.395,1.718-1.945.428-3.919.169-5.874.327-.846.068-.94.137-.769.988.246,1.205-.2,1.762-1.417,1.762q-3.63,0-7.258,0Zm-1.839-26.206c-2.756.015-5.213.011-7.671.091-2.71.087-5.416.23-8.113.5a3.3,3.3,0,0,0-2.679,2.925c-.044,2.351-.033,4.7-.152,7.051-.152,3.043.058,6.08.058,9.121,0,.384.165.509.532.517,1.72.044,3.433-.12,5.149-.116.323,0,.457-.133.452-.462-.019-1.007,0-2.016-.033-3.022-.094-2.448-.048-4.9-.067-7.349a1.433,1.433,0,0,1,.048-.35,1.3,1.3,0,0,1,1.274-1.021,1.281,1.281,0,0,1,1.322,1.03,4.891,4.891,0,0,1,.079.941c.063,4.364-.042,8.731.09,13.1.017.536.175.72.713.716,1.7-.017,3.4-.017,5.092.034,3.708.11,7.417.025,11.123.08.379.006.519-.152.509-.53-.054-2.034-.079-4.069-.15-6.1-.092-2.682-.227-5.365-.323-8.047-.033-.9.411-1.4,1.2-1.435a1.386,1.386,0,0,1,1.449,1.391c.077,1.34.163,2.68.215,4.02q.144,3.7.242,7.4c.013.447.177.58.6.566,1.365-.051,2.729-.08,4.094-.11.775-.017.771-.011.775-.8.013-3.14-.131-6.277-.229-9.415-.077-2.507-.211-5.01-.384-7.511a2.994,2.994,0,0,0-2.408-3.026,8.855,8.855,0,0,0-1.859-.169c-1.62,0-3.241.1-4.857.044C90.947,718.074,88.821,718.134,86.992,718.091Z"/><path class="a" d="M85.406,712.762a9.846,9.846,0,0,1-9.441-6.686,8.987,8.987,0,0,1,.677-6.612c1.861-3.951,5.115-5.724,9.272-5.926a10.824,10.824,0,0,1,5.666,1.454,5.724,5.724,0,0,1,1.4,1.418,9.4,9.4,0,0,1,2.589,6.665,8.594,8.594,0,0,1-1.484,4.979,11.415,11.415,0,0,1-6.07,4.329A8.664,8.664,0,0,1,85.406,712.762Zm.208-3.117a6.707,6.707,0,0,0,4.407-1.515,6.209,6.209,0,0,0,2.456-6.532,6,6,0,0,0-4.665-4.873c-3.842-.9-6.975.684-8.678,4.284a5.19,5.19,0,0,0,.1,4.953A7.108,7.108,0,0,0,85.615,709.645Z"/><path class="a" d="M111.014,687.426a7.835,7.835,0,0,1,4.073,1.021,6.184,6.184,0,0,1,2.13,2.4,6.625,6.625,0,0,1-.058,7.355,7.674,7.674,0,0,1-9.245,3.172,7.577,7.577,0,0,1-3.114-2.144,6.647,6.647,0,0,1-.479-7.94A7.527,7.527,0,0,1,111.014,687.426Zm.015,11.785a4.418,4.418,0,0,0,1.445-.266,4.937,4.937,0,0,0,3.294-4.4,4.538,4.538,0,0,0-2.772-4.236,5.227,5.227,0,0,0-7.083,3.484,3.506,3.506,0,0,0-.035,1.929C106.376,697.759,108.388,699.2,111.029,699.211Z"/><path class="a" d="M104.942,714.43c0,.479,0,1.049,0,1.621,0,.112.025.255-.1.315s-.208-.07-.275-.156a8.454,8.454,0,0,0-2.055-1.819c-.115-.074-.246-.163-.252-.308a5.48,5.48,0,0,1,.121-2.277,1.223,1.223,0,0,1,1.334-.732,1.264,1.264,0,0,1,1.144,1.085A18.081,18.081,0,0,1,104.942,714.43Z"/></g></svg>