<svg xmlns="http://www.w3.org/2000/svg" width="43.999" height="49" viewBox="0 0 43.999 49">
    <g transform="translate(-69.907 -1261.407)">
        <path fill="#666" class="a"
            d="M89.97,1310.407a24.815,24.815,0,0,1-4.267-.834c-8.539-2.776-13.855-8.476-15.427-17.2-1.322-7.335.944-13.729,6.245-19.038a20.891,20.891,0,0,1,7.4-4.718,2.008,2.008,0,0,1,2.7,1.053,1.945,1.945,0,0,1-1.222,2.594,17.262,17.262,0,0,0-10.407,10.57,17.744,17.744,0,0,0,14.245,23.478,17.662,17.662,0,0,0,16.183-5.834,16.786,16.786,0,0,0,4.4-9.9,17.641,17.641,0,0,0-11.035-18.164c-.838-.343-1.519-.761-1.7-1.716a1.963,1.963,0,0,1,2.307-2.222,12.7,12.7,0,0,1,3.4,1.5,21.085,21.085,0,0,1,10.837,15.564,20.727,20.727,0,0,1-5.481,17.851,21.621,21.621,0,0,1-12.9,6.827c-.46.075-.925.13-1.388.192Z" />
        <path class="a" fill="#666"
            d="M89.939,1272.689q0-4.659,0-9.32a1.934,1.934,0,0,1,1.471-1.9,2.014,2.014,0,0,1,2.241.949,1.78,1.78,0,0,1,.236.913q0,9.39,0,18.783a1.972,1.972,0,0,1-3.943-.01Q89.931,1277.4,89.939,1272.689Z" />
    </g>
</svg>