<svg xmlns="http://www.w3.org/2000/svg" width="46.001" height="41" viewBox="0 0 46.001 41"> <g transform="translate(-71.596 -917.459)"><path class="a" fill="#666" d="M71.6,929.719a20.435,20.435,0,0,1,.774-3.4c1.628-4.485,4.651-7.5,9.363-8.539a11.685,11.685,0,0,1,11.6,3.707,12.024,12.024,0,0,1,.928,1.092c.238.32.4.312.637,0a13.528,13.528,0,0,1,3.917-3.51A11.607,11.607,0,0,1,106.5,917.6a12.09,12.09,0,0,1,7.252,3.7,13.733,13.733,0,0,1,3.657,7.588,14.992,14.992,0,0,1-.943,8.132,22.421,22.421,0,0,1-4.149,6.35,88.577,88.577,0,0,1-8.481,7.993q-3.664,3.166-7.351,6.308a2.664,2.664,0,0,1-3.712.07c-4.739-4.114-9.658-8.029-14.125-12.454A28.845,28.845,0,0,1,73.6,938.9a15.9,15.9,0,0,1-1.936-5.739c-.015-.1-.046-.2-.07-.3Zm2.757,1.615a12.777,12.777,0,0,0,2.274,7.2,37.887,37.887,0,0,0,6.615,7.284c3.6,3.243,7.323,6.342,10.981,9.517.27.234.42.247.7,0,3.139-2.722,6.3-5.421,9.437-8.147a49.9,49.9,0,0,0,7.34-7.474,13.443,13.443,0,0,0,3.071-9.224,11.184,11.184,0,0,0-2.719-6.916,9.422,9.422,0,0,0-8.924-3.167,9.135,9.135,0,0,0-5.345,3.061,25.252,25.252,0,0,0-1.808,2.4,1.694,1.694,0,0,1-2.793.011c-.2-.259-.365-.546-.553-.816-2.206-3.158-5.052-5.09-9.089-4.75a9.275,9.275,0,0,0-5.714,2.517A11.289,11.289,0,0,0,74.352,931.334Z"/></g></svg>