<svg xmlns="http://www.w3.org/2000/svg" width="46.999" height="42.001" viewBox="0 0 46.999 42.001"> <g transform="translate(-69.06 -577.34)"><path fill="#666" class="a" d="M110.928,585.014h-7.723v-2.47a5.177,5.177,0,0,0-5.132-5.2H87.705a5.174,5.174,0,0,0-5.13,5.2v2.47H74.19a5.171,5.171,0,0,0-5.13,5.2v23.92a5.172,5.172,0,0,0,5.13,5.2h36.738a5.172,5.172,0,0,0,5.13-5.2v-23.92A5.171,5.171,0,0,0,110.928,585.014Zm-26.3-2.47a3.105,3.105,0,0,1,3.079-3.122H98.073a3.1,3.1,0,0,1,3.079,3.122v2.47H84.626Zm16.525,4.55V617.26H84.626V587.095ZM71.111,614.138v-23.92a3.105,3.105,0,0,1,3.079-3.122h8.385V617.26H74.19A3.105,3.105,0,0,1,71.111,614.138Zm42.9,0a3.105,3.105,0,0,1-3.079,3.122h-7.723V587.095h7.723a3.105,3.105,0,0,1,3.079,3.122Z"/></g></svg>