<svg xmlns="http://www.w3.org/2000/svg" width="42" height="55.999" viewBox="0 0 42 55.999"><defs><style>.a{fill:#858585;}</style></defs><g transform="translate(-147.785 -491.578)"><path class="a" d="M185.8,526.752v-9.045a16.934,16.934,0,0,0-4.885-11.973,16.516,16.516,0,0,0-8.015-4.518,5.7,5.7,0,1,0-8.15.091l.044.04a16.547,16.547,0,0,0-7.5,4.387,16.934,16.934,0,0,0-4.885,11.973v8.986a4.757,4.757,0,0,0-4.63,4.755v4.288a4.761,4.761,0,0,0,4.748,4.759h8.119a8.212,8.212,0,0,0,16.269,0h8.119a4.758,4.758,0,0,0,4.746-4.759v-4.288A4.76,4.76,0,0,0,185.8,526.752Zm-2.321-.061H154.735v-6.064h28.748Zm-14.7-32.805a3.378,3.378,0,1,1-3.37,3.378A3.377,3.377,0,0,1,168.785,493.885ZM158.95,507.37a14.234,14.234,0,0,1,20.32,0,14.618,14.618,0,0,1,4.213,10.337v.6H154.735v-.6A14.62,14.62,0,0,1,158.95,507.37Zm14,36.156A5.892,5.892,0,0,1,163,540.494H174.57A5.848,5.848,0,0,1,172.952,543.526Zm14.514-7.791a2.433,2.433,0,0,1-2.427,2.432H152.534a2.433,2.433,0,0,1-2.427-2.432v-4.288a2.433,2.433,0,0,1,2.427-2.432h32.506a2.433,2.433,0,0,1,2.427,2.432Z"/></g></svg>