<svg xmlns="http://www.w3.org/2000/svg" width="38" height="50.001" viewBox="0 0 38 50.001"><defs><style>.a{fill:#666;}</style></defs><g transform="translate(-73.577 -1147.238)"><path class="a" d="M77.466,1197.239a5.033,5.033,0,0,1-3.11-2.083,4.559,4.559,0,0,1-.778-2.524q0-10.992,0-21.985A4.69,4.69,0,0,1,78.3,1166c.28,0,.56,0,.84,0,.759,0,.759,0,.761-.728,0-1.819.021-3.641,0-5.46a12.575,12.575,0,0,1,10.69-12.408,12.716,12.716,0,0,1,14.578,10.757,13.163,13.163,0,0,1,.09,1.5v4.972c0,1.359,0,1.357,1.355,1.361a5.635,5.635,0,0,1,1.129.076,4.691,4.691,0,0,1,3.835,4.624q.01,10.846,0,21.69a4.692,4.692,0,0,1-3.653,4.774c-.079.021-.156.051-.233.078Zm15.162-28.053H78.755c-1.368,0-1.945.576-1.945,1.94q0,10.5,0,21.01c0,1.366.579,1.946,1.939,1.946q13.826,0,27.652,0c1.364,0,1.945-.58,1.945-1.939q0-10.508,0-21.013c0-1.384-.573-1.944-1.99-1.944ZM92.546,1166q4.466,0,8.935,0c.293,0,.558.025.547-.407-.051-2.191.079-4.386-.079-6.576a9.43,9.43,0,0,0-18.817.863c-.017,1.851.011,3.7-.013,5.555-.006.458.143.576.59.574C86.655,1165.988,89.6,1166,92.546,1166Z"/><path class="a" d="M94.192,1185.146c0,.73.006,1.463,0,2.193a1.612,1.612,0,1,1-3.223.01c-.011-1.477-.015-2.957,0-4.434a.705.705,0,0,0-.436-.72,4.147,4.147,0,0,1-1.949-5.139,4.256,4.256,0,0,1,4.771-2.678,4.2,4.2,0,0,1,3.482,4.337,4.048,4.048,0,0,1-2.206,3.474.733.733,0,0,0-.447.764C94.211,1183.683,94.192,1184.413,94.192,1185.146Zm-1.627-5.675a.957.957,0,1,0-.958-.992A.912.912,0,0,0,92.565,1179.47Z"/></g></svg>