<svg xmlns="http://www.w3.org/2000/svg" width="53" height="36" viewBox="0 0 53 36"> <g transform="translate(-67.244 -1045.619)"><path class="a" fill="#666" d="M120.244,1076.966a6.235,6.235,0,0,1-1.646,3.041,5.335,5.335,0,0,1-3.821,1.6q-21.023.016-42.048,0a5.571,5.571,0,0,1-5.48-5.616q-.013-12.3,0-24.592a5.59,5.59,0,0,1,5.69-5.779q17.325-.006,34.651,0,3.414,0,6.825,0a5.626,5.626,0,0,1,5.747,4.406c.023.083.056.163.083.246ZM93.789,1061.44H70.26c-.686,0-.69,0-.69.7,0,4.518.048,9.036-.021,13.553a3.46,3.46,0,0,0,3.534,3.579q20.682-.054,41.368,0a3.456,3.456,0,0,0,3.529-3.582c-.069-4.5-.021-9-.021-13.5,0-.744,0-.746-.745-.746Zm-.083-2.367h1.758q10.907,0,21.817.011c.513,0,.7-.129.678-.674-.042-.962-.013-1.926-.013-2.889,0-.807,0-.807-.782-.807H82.629c-4.153,0-8.306.006-12.457-.009-.444,0-.613.123-.6.593.029,1,.008,1.994.008,2.992,0,.78,0,.782.757.782Zm.067-6.727h23.32c.171,0,.344,0,.517,0,.238,0,.319-.127.348-.356a3.362,3.362,0,0,0-3.442-4c-13.823,0-27.647.015-41.47-.019a3.382,3.382,0,0,0-3.486,3.558c.05.814.006.818.839.818Z"/><path class="a" fill="#666" d="M113.659,1070.489a8.906,8.906,0,0,1-.092,1.814,3.363,3.363,0,0,1-3.248,2.586c-.738.011-1.481.013-2.219,0a3.359,3.359,0,0,1-3.306-2.95,11.628,11.628,0,0,1-.006-3.139,3.219,3.219,0,0,1,2.753-2.922,10.236,10.236,0,0,1,3.494.025,3.29,3.29,0,0,1,2.624,3.262C113.663,1069.567,113.659,1069.97,113.659,1070.489Zm-2.326-.108h0c0-.367.01-.735,0-1.1a1.017,1.017,0,0,0-1.1-1.108c-.672-.015-1.341-.013-2.013,0a1.071,1.071,0,0,0-1.17,1.117c-.035.714-.033,1.435,0,2.149a1.034,1.034,0,0,0,.995,1.074c.774.032,1.55.03,2.322,0a.975.975,0,0,0,.957-1.028C111.346,1071.114,111.333,1070.748,111.333,1070.381Z"/><path class="a" fill="#666" d="M81.6,1070.381c-2.171,0-4.343,0-6.512,0a1.115,1.115,0,0,1-1.212-1.24,1.057,1.057,0,0,1,.77-1.009,2.243,2.243,0,0,1,.711-.1q6.28-.01,12.559,0a2.555,2.555,0,0,1,.361.017,1.225,1.225,0,0,1,1.131,1.212,1.157,1.157,0,0,1-1.245,1.128C85.971,1070.385,83.785,1070.381,81.6,1070.381Z"/><path class="a" fill="#666" d="M81.557,1074.891q-3.151,0-6.3,0a1.34,1.34,0,0,1-1.116-.434,1.177,1.177,0,0,1,.693-1.909,3.349,3.349,0,0,1,.62-.026q6.176,0,12.353,0c.086,0,.171,0,.257,0a1.191,1.191,0,1,1,.01,2.363C85.9,1074.9,83.728,1074.891,81.557,1074.891Z"/></g></svg>