<svg xmlns="http://www.w3.org/2000/svg" width="47" height="47" viewBox="0 0 47 47"><defs><style>.a{fill:#858585;}</style></defs><g transform="translate(-145.805 -619.94)"><path class="a" d="M192.8,646.266a3.262,3.262,0,0,1-3.208,2.4c-.837.068-1.667.2-2.5.294a.72.72,0,0,0-.685.551,17.532,17.532,0,0,1-.74,1.773.577.577,0,0,0,.066.7c.642.8,1.268,1.608,1.889,2.422a2.968,2.968,0,0,1-.266,4.245c-.949.953-1.9,1.908-2.855,2.853a2.96,2.96,0,0,1-4.141.249c-.835-.644-1.673-1.285-2.5-1.946a.524.524,0,0,0-.661-.046,10.568,10.568,0,0,1-1.817.754.682.682,0,0,0-.522.657c-.12,1.014-.262,2.028-.378,3.045a2.966,2.966,0,0,1-3,2.711q-2.177.01-4.355,0a2.969,2.969,0,0,1-2.977-2.686c-.118-1.014-.256-2.029-.376-3.045a.724.724,0,0,0-.543-.691,16.048,16.048,0,0,1-1.775-.74.6.6,0,0,0-.74.082c-.8.644-1.608,1.27-2.424,1.891a2.97,2.97,0,0,1-4.209-.281q-1.414-1.41-2.821-2.823a2.973,2.973,0,0,1-.239-4.245c.623-.794,1.228-1.6,1.864-2.386a.606.606,0,0,0,.07-.742,18.057,18.057,0,0,1-.74-1.775.7.7,0,0,0-.651-.528c-1.016-.12-2.028-.264-3.045-.378a2.968,2.968,0,0,1-2.722-2.988q-.009-2.181,0-4.357a2.965,2.965,0,0,1,2.673-2.986c1.016-.118,2.028-.26,3.045-.374a.75.75,0,0,0,.712-.581,16.273,16.273,0,0,1,.725-1.731.6.6,0,0,0-.07-.742c-.636-.782-1.247-1.587-1.862-2.386a2.976,2.976,0,0,1,.27-4.279q1.407-1.413,2.823-2.821a2.946,2.946,0,0,1,4.135-.281c.828.628,1.65,1.266,2.457,1.919a.607.607,0,0,0,.742.089,16.446,16.446,0,0,1,1.773-.742.723.723,0,0,0,.554-.685c.106-.94.258-1.876.344-2.817a3.1,3.1,0,0,1,2.348-2.891h5.686a3.1,3.1,0,0,1,2.348,2.888c.087.928.237,1.847.342,2.77a.724.724,0,0,0,.556.729,9.8,9.8,0,0,1,1.815.756.522.522,0,0,0,.659-.072q1.236-.986,2.5-1.944a2.952,2.952,0,0,1,4.137.275q1.433,1.42,2.853,2.85a2.963,2.963,0,0,1,.279,4.207c-.621.814-1.247,1.625-1.889,2.419a.582.582,0,0,0-.085.74,9.088,9.088,0,0,1,.74,1.773.7.7,0,0,0,.687.547c.833.093,1.663.224,2.5.294a3.256,3.256,0,0,1,3.2,2.4Zm-23.475,18.609c.687,0,1.376.006,2.064,0,.661-.008.938-.245,1.033-.913.184-1.316.372-2.631.518-3.951a1.24,1.24,0,0,1,.98-1.166,14.985,14.985,0,0,0,3.083-1.289,1.178,1.178,0,0,1,1.441.112c1.029.818,2.073,1.619,3.115,2.419a1.023,1.023,0,0,0,1.574-.112q1.366-1.36,2.726-2.724a1.035,1.035,0,0,0,.106-1.61q-1.217-1.582-2.445-3.153a1.07,1.07,0,0,1-.112-1.278,17.863,17.863,0,0,0,1.373-3.3,1.145,1.145,0,0,1,1.061-.858c1.35-.158,2.7-.338,4.042-.53a.888.888,0,0,0,.885-1.016q.01-2.089,0-4.175a.877.877,0,0,0-.883-1.012c-1.344-.188-2.692-.372-4.04-.533a1.171,1.171,0,0,1-1.08-.9,16.493,16.493,0,0,0-1.342-3.21,1.122,1.122,0,0,1,.12-1.359c.826-1.042,1.635-2.1,2.445-3.153a1.01,1.01,0,0,0-.1-1.54q-1.344-1.347-2.692-2.692c-.63-.628-1.018-.657-1.712-.122q-1.525,1.179-3.041,2.367a1.1,1.1,0,0,1-1.314.167,17.525,17.525,0,0,0-3.339-1.386,1.121,1.121,0,0,1-.843-1.027c-.167-1.363-.34-2.726-.537-4.087a.874.874,0,0,0-1.018-.877q-2.086-.013-4.173,0a.888.888,0,0,0-1.01.89c-.186,1.314-.378,2.631-.518,3.949a1.287,1.287,0,0,1-1.048,1.219,13.964,13.964,0,0,0-3,1.245,1.205,1.205,0,0,1-1.479-.112c-1.029-.818-2.073-1.616-3.115-2.417a1.012,1.012,0,0,0-1.54.11q-1.379,1.376-2.755,2.758a1.02,1.02,0,0,0-.1,1.574c.794,1.029,1.589,2.058,2.4,3.074a1.153,1.153,0,0,1,.169,1.4,15.977,15.977,0,0,0-1.354,3.252,1.149,1.149,0,0,1-1.05.879q-2.022.247-4.04.53c-.668.093-.909.372-.913,1.033q-.01,2.063,0,4.129c0,.668.241.953.9,1.044,1.314.186,2.629.374,3.949.518a1.268,1.268,0,0,1,1.194,1.014,14.685,14.685,0,0,0,1.264,3.043,1.2,1.2,0,0,1-.12,1.477c-.82,1.029-1.619,2.073-2.419,3.115a1,1,0,0,0,.091,1.5q1.376,1.385,2.755,2.757a1.043,1.043,0,0,0,1.646.1q1.525-1.179,3.041-2.367a1.111,1.111,0,0,1,1.312-.194,18.325,18.325,0,0,0,3.381,1.405,1.12,1.12,0,0,1,.826,1.04q.247,2.047.537,4.086a.877.877,0,0,0,.993.856C167.922,664.883,168.626,664.875,169.329,664.875Z"/><path class="a" d="M179.161,643.413a9.838,9.838,0,1,1-9.847-9.83A9.87,9.87,0,0,1,179.161,643.413Zm-17.61-.006a7.772,7.772,0,1,0,7.805-7.757A7.776,7.776,0,0,0,161.551,643.407Z"/></g></svg>