<svg xmlns="http://www.w3.org/2000/svg" width="49.082" height="47.053" viewBox="0 0 49.082 47.053"><defs><style>.a{fill:none;stroke:#858585;stroke-miterlimit:10;stroke-width:2.512px;}</style></defs><g transform="translate(-142.934 -727.934)"><path class="a" d="M190.563,745.835a3.207,3.207,0,0,0-2.581-2.182l-12.206-1.775-5.453-11.05a3.324,3.324,0,0,0-5.729,0l-5.453,11.05-12.175,1.775a3.207,3.207,0,0,0-1.77,5.466l8.831,8.629-2.084,12.18a3.2,3.2,0,0,0,4.64,3.379l10.875-5.751,10.909,5.751a3.2,3.2,0,0,0,4.642-3.379l-2.08-12.18,8.827-8.629A3.209,3.209,0,0,0,190.563,745.835Z"/></g></svg>